HIERARCHY
ROOT Hips
{
    OFFSET 0.000000 0.000000 0.000000
    CHANNELS 6 Xposition Yposition Zposition Zrotation Xrotation Yrotation
    JOINT Spine
    {
        OFFSET -0.000000 8.185774 0.000000
        CHANNELS 3 Zrotation Xrotation Yrotation
        JOINT Spine1
        {
            OFFSET -0.000000 23.949169 0.000000
            CHANNELS 3 Zrotation Xrotation Yrotation
            JOINT Neck
            {
                OFFSET -0.000000 23.850817 2.168256
                CHANNELS 3 Zrotation Xrotation Yrotation
                JOINT Head
                {
                    OFFSET -0.000000 13.975711 -1.996530
                    CHANNELS 3 Zrotation Xrotation Yrotation
                    End Site
                    {
                        OFFSET -0.000000 24.956627 0.000000
                    }
                }
            }
            JOINT LeftShoulder
            {
                OFFSET 3.979389 22.161966 -0.249083
                CHANNELS 3 Zrotation Xrotation Yrotation
                JOINT LeftArm
                {
                    OFFSET 10.812937 0.000000 0.000000
                    CHANNELS 3 Zrotation Xrotation Yrotation
                    JOINT LeftForeArm
                    {
                        OFFSET 31.697208 0.000000 0.000000
                        CHANNELS 3 Zrotation Xrotation Yrotation
                        JOINT LeftHand
                        {
                            OFFSET 27.047384 0.000000 0.000000
                            CHANNELS 3 Zrotation Xrotation Yrotation
                            End Site
                            {
                                OFFSET 14.973977 0.000000 0.000000
                            }
                        }
                    }
                }
            }
            JOINT RightShoulder
            {
                OFFSET -4.006446 22.161966 -0.249083
                CHANNELS 3 Zrotation Xrotation Yrotation
                JOINT RightArm
                {
                    OFFSET -10.812937 0.000000 0.000000
                    CHANNELS 3 Zrotation Xrotation Yrotation
                    JOINT RightForeArm
                    {
                        OFFSET -31.697208 0.000000 0.000000
                        CHANNELS 3 Zrotation Xrotation Yrotation
                        JOINT RightHand
                        {
                            OFFSET -27.047384 0.000000 0.000000
                            CHANNELS 3 Zrotation Xrotation Yrotation
                            End Site
                            {
                                OFFSET -14.973977 0.000000 0.000000
                            }
                        }
                    }
                }
            }
        }
    }
    JOINT LeftUpLeg
    {
        OFFSET 9.982651 0.000000 0.000000
        CHANNELS 3 Zrotation Xrotation Yrotation
        JOINT LeftLeg
        {
            OFFSET -0.000000 -38.511635 0.000000
            CHANNELS 3 Zrotation Xrotation Yrotation
            JOINT LeftFoot
            {
                OFFSET -0.000000 -44.789326 0.000000
                CHANNELS 3 Zrotation Xrotation Yrotation
                JOINT LeftToeBase
                {
                    OFFSET -0.000000 -6.488723 14.973977
                    CHANNELS 3 Zrotation Xrotation Yrotation
                    End Site
                    {
                        OFFSET -0.000000 0.000000 3.993060
                    }
                }
            }
        }
    }
    JOINT RightUpLeg
    {
        OFFSET -9.982651 0.000000 0.000000
        CHANNELS 3 Zrotation Xrotation Yrotation
        JOINT RightLeg
        {
            OFFSET -0.000000 -38.511635 0.000000
            CHANNELS 3 Zrotation Xrotation Yrotation
            JOINT RightFoot
            {
                OFFSET -0.000000 -44.789326 0.000000
                CHANNELS 3 Zrotation Xrotation Yrotation
                JOINT RightToeBase
                {
                    OFFSET -0.000000 -6.488723 14.973977
                    CHANNELS 3 Zrotation Xrotation Yrotation
                    End Site
                    {
                        OFFSET -0.000000 0.000000 3.993060
                    }
                }
            }
        }
    }
}
MOTION
Frames:    4
Frame Time:    0.008333
-4.435984    94.905632    -7.980790    -1.183164    -6.322652    178.892227    0.290766    -3.094055    6.134588    -3.399364    3.046858    6.217168    -5.351953    12.651318    -12.787723    -4.181827    -0.062701    -13.709276    3.344339    9.183763    1.022565    -65.546516    42.094563    16.751240    2.776843    6.020094    -19.383991    -10.657424    7.421426    -10.018120    -16.011568    -2.013503    3.378427    57.404762    38.967567    13.954258    -18.106924    -8.785621    46.952877    -3.810420    -0.513152    -10.895831    0.258463    -40.139473    5.427493    4.469124    35.230007    -3.353251    -8.385983    -0.900478    8.701942    0.000000    0.000000    0.000000    3.839837    0.340300    -6.347932    -3.474626    18.357985    11.496520    5.062691    -2.671994    -12.643401    0.000000    0.000000    0.000000    
-4.388512    94.982872    -9.071215    -1.021852    -6.457741    179.036972    0.366582    -3.387286    6.286868    -3.339658    3.454512    6.376773    -5.595120    11.894658    -12.783929    -4.556703    0.597830    -13.685053    3.189465    8.960326    1.418863    -65.514587    42.321102    17.432304    2.811671    5.754540    -19.510410    -10.643452    7.190354    -10.296100    -16.651743    -2.233848    3.179775    57.024113    38.366512    14.786446    -18.842026    -8.377641    47.377136    -2.373852    0.168092    -10.501663    -0.003568    -39.651466    4.921251    3.629988    32.454666    -2.597302    -8.840634    -1.192826    8.615396    0.000000    0.000000    0.000000    3.839687    0.971694    -6.290325    -3.314899    18.027271    11.108506    5.917679    -1.838220    -12.122212    0.000000    0.000000    0.000000    
-4.350497    95.010315    -10.196173    -0.868881    -6.536096    179.351517    0.591820    -3.398102    6.325394    -3.769052    3.206695    6.413390    -5.755132    12.144111    -12.869431    -4.168241    0.627806    -13.727272    3.194827    9.194072    1.692927    -65.232452    42.137039    17.826021    2.764060    5.659576    -19.330601    -10.682813    7.103786    -10.479112    -16.331814    -2.418755    3.563931    56.513371    38.159077    14.825168    -19.207474    -8.625283    47.835316    -2.310804    0.171906    -10.622998    -0.425105    -39.090050    4.044308    2.902481    29.868135    -1.789548    -10.026963    -1.837858    8.532093    0.000000    0.000000    0.000000    3.831419    1.672335    -6.671142    -3.252339    17.728151    10.971945    6.556636    -1.084413    -11.564767    0.000000    0.000000    0.000000    
-4.313396    94.994637    -11.318478    -0.700998    -6.617847    179.591003    0.590668    -3.493943    6.407092    -3.646203    3.095985    6.487657    -6.521364    12.226737    -12.943133    -3.296035    0.933447    -13.653953    2.987535    9.282092    1.678709    -64.912933    41.579189    18.310596    2.332007    5.739172    -19.292723    -10.503935    7.099765    -10.553804    -16.473749    -2.229169    3.675456    55.639927    38.058758    15.554930    -19.546789    -8.898623    48.150188    -2.214171    0.108515    -10.656503    -0.727753    -38.510468    3.176082    2.178749    27.307774    -1.305413    -11.148494    -2.508342    8.700536    0.000000    0.000000    0.000000    3.807497    2.323978    -6.627686    -2.997986    17.583561    11.055833    7.091457    -0.569017    -11.610109    0.000000    0.000000    0.000000    
